<svg xmlns="http://www.w3.org/2000/svg" width="32" height="32" fill="none" data-scaled="true" viewBox="0 0 32 32"><path fill="url(#paint0_linear)" d="M30 2H2V30H30V2Z"/><path fill="url(#paint1_linear)" d="M24.9001 7.09998H7.1001V24.9H24.9001V7.09998Z"/><path fill="url(#paint2_linear)" d="M27.5999 4.40002H4.3999V27.6H27.5999V4.40002V4.40002Z"/><path fill="url(#paint3_linear)" d="M7.1 7.1H24.9L30 2H2L7.1 7.1Z"/><path fill="url(#paint4_linear)" d="M24.9 24.9H7.1L2 30H30L24.9 24.9Z"/><path fill="url(#paint5_linear)" d="M24.8999 7.1V24.9L29.9999 30V2L24.8999 7.1Z"/><path fill="url(#paint6_linear)" d="M7.1 24.9V7.1L2 2V30L7.1 24.9Z"/><path fill="url(#paint7_linear)" d="M4.4 4.4H27.6L30 2H2L4.4 4.4Z"/><path fill="url(#paint8_linear)" d="M4.4 4.4H27.6L30 2H2L4.4 4.4Z"/><path fill="url(#paint9_linear)" d="M4.4 4.4H27.6L30 2H2L4.4 4.4Z"/><path fill="url(#paint10_linear)" d="M27.5999 4.40002H4.3999L7.0999 7.10002H24.8999L27.5999 4.40002Z"/><path fill="url(#paint11_linear)" d="M27.6 27.6H4.4L2 30H30L27.6 27.6Z"/><path fill="url(#paint12_linear)" d="M27.6 27.6H4.4L2 30H30L27.6 27.6Z"/><path fill="url(#paint13_linear)" d="M27.6 27.6H4.4L2 30H30L27.6 27.6Z"/><path fill="url(#paint14_linear)" d="M27.6001 27.6L30.0001 30V2L27.6001 4.4V27.6Z"/><path fill="url(#paint15_linear)" d="M27.6001 27.6L30.0001 30V2L27.6001 4.4V27.6Z"/><path fill="url(#paint16_linear)" d="M27.6001 27.6L30.0001 30V2L27.6001 4.4V27.6Z"/><path fill="url(#paint17_linear)" d="M27.6001 27.6L30.0001 30V2L27.6001 4.4V27.6Z"/><path fill="url(#paint18_linear)" d="M4.4 27.6V4.4L2 2V30L4.4 27.6Z"/><path fill="url(#paint19_linear)" d="M4.4 27.6V4.4L2 2V30L4.4 27.6Z"/><path fill="url(#paint20_linear)" d="M4.3999 4.40002V27.6L7.0999 24.9V7.10002L4.3999 4.40002Z"/><path fill="url(#paint21_linear)" d="M26 6H6V26H26V6Z"/><path fill="#fff" d="M15 22H8V23.6H15V22Z"/><path fill="#fff" d="M12 9.49333V8H8V9.49333H9.18919V14.5067H8V16H12V14.5067H10.9189V9.49333H12Z"/><path fill="#fff" d="M15.5 16C14.9 16 14.4 15.8947 14 15.6842C13.6 15.4737 13.3 15.1579 13 14.8421L14 13.5789C14.2 13.7895 14.4 14 14.6 14.1053C14.8 14.2105 15.1 14.3158 15.3 14.3158C15.6 14.3158 15.9 14.2105 16 14C16.2 13.7895 16.3 13.4737 16.3 13.0526V8H18V13.1579C18 13.5789 17.9 14 17.8 14.4211C17.7 14.7368 17.5 15.0526 17.3 15.2632C17.1 15.4737 16.8 15.6842 16.5 15.7895C16.3 15.8947 15.9 16 15.5 16Z"/><defs><linearGradient id="paint0_linear" x1="33.13" x2="-6.422" y1="33.13" y2="-6.421" gradientUnits="userSpaceOnUse"><stop offset=".347" stop-color="#087CFA"/><stop offset=".856" stop-color="#FE2857"/><stop offset="1" stop-color="#FE2857"/></linearGradient><linearGradient id="paint1_linear" x1="26.901" x2="1.732" y1="26.901" y2="1.732" gradientUnits="userSpaceOnUse"><stop offset=".347" stop-color="#087CFA"/><stop offset=".856" stop-color="#FE2857"/><stop offset="1" stop-color="#FE2857"/></linearGradient><linearGradient id="paint2_linear" x1="30.19" x2="-2.573" y1="30.19" y2="-2.573" gradientUnits="userSpaceOnUse"><stop offset="0" stop-color="#087CFA"/><stop offset=".282" stop-color="#0855FA"/><stop offset=".764" stop-color="#E0326B"/><stop offset=".772" stop-color="#FE2857"/><stop offset="1" stop-color="#FE2857"/></linearGradient><linearGradient id="paint3_linear" x1="32.012" x2="3.016" y1="9.941" y2="-1.677" gradientUnits="userSpaceOnUse"><stop offset=".347" stop-color="#087CFA"/><stop offset=".77" stop-color="#F01A72"/><stop offset=".987" stop-color="#FE2857"/></linearGradient><linearGradient id="paint4_linear" x1="33.175" x2="7.091" y1="30.77" y2="26.384" gradientUnits="userSpaceOnUse"><stop offset=".251" stop-color="#087CFA" stop-opacity=".97"/><stop offset=".572" stop-color="#087CFA"/><stop offset=".892" stop-color="#087CFA" stop-opacity=".5"/></linearGradient><linearGradient id="paint5_linear" x1="27.127" x2="27.977" y1="2.549" y2="30.858" gradientUnits="userSpaceOnUse"><stop offset=".018" stop-color="#429EFA"/><stop offset=".518" stop-color="#087CFA"/><stop offset="1" stop-color="#965CF3" stop-opacity=".977"/></linearGradient><linearGradient id="paint6_linear" x1="5.708" x2="2.566" y1="27.93" y2="2.567" gradientUnits="userSpaceOnUse"><stop offset=".323" stop-color="#087CFA"/><stop offset=".72" stop-color="#DF0373"/><stop offset="1" stop-color="#FE2857"/></linearGradient><linearGradient id="paint7_linear" x1="14.868" x2="8.061" y1="3.146" y2="8.579" gradientUnits="userSpaceOnUse"><stop offset=".102" stop-color="#F0B" stop-opacity="0"/><stop offset=".813" stop-color="#FCBD36"/><stop offset="1" stop-color="#fff" stop-opacity=".9"/></linearGradient><linearGradient id="paint8_linear" x1="30.442" x2="21.278" y1="5.377" y2="3.871" gradientUnits="userSpaceOnUse"><stop offset=".018" stop-color="#00FFFA"/><stop offset=".856" stop-color="#07C3F2" stop-opacity="0"/></linearGradient><linearGradient id="paint9_linear" x1="16.415" x2="15.881" y1="-1.213" y2="2.921" gradientUnits="userSpaceOnUse"><stop offset=".203" stop-color="#087CFA"/><stop offset="1" stop-color="#6D6E71" stop-opacity="0"/></linearGradient><linearGradient id="paint10_linear" x1="24.465" x2="9.738" y1="2.216" y2="7.517" gradientUnits="userSpaceOnUse"><stop offset=".174" stop-color="#0861FA"/><stop offset=".723" stop-color="#0855FA" stop-opacity="0"/></linearGradient><linearGradient id="paint11_linear" x1="32.992" x2="6.908" y1="31.857" y2="27.472" gradientUnits="userSpaceOnUse"><stop offset="0" stop-color="#434FCF" stop-opacity="0"/><stop offset="1" stop-color="#1B6EEC"/></linearGradient><linearGradient id="paint12_linear" x1="16" x2="16" y1="25.951" y2="29.366" gradientUnits="userSpaceOnUse"><stop offset=".018" stop-color="#42FFFA"/><stop offset=".856" stop-color="#07C3F2" stop-opacity="0"/></linearGradient><linearGradient id="paint13_linear" x1="28.848" x2="20.666" y1="24.047" y2="27.385" gradientUnits="userSpaceOnUse"><stop offset=".018" stop-color="#FF39FF" stop-opacity=".5"/><stop offset=".856" stop-color="#FF318C" stop-opacity="0"/></linearGradient><linearGradient id="paint14_linear" x1="28.429" x2="29.28" y1="2.51" y2="30.819" gradientUnits="userSpaceOnUse"><stop offset=".018" stop-color="#085EFA"/><stop offset=".856" stop-color="#FF45ED" stop-opacity="0"/></linearGradient><linearGradient id="paint15_linear" x1="24.483" x2="30.439" y1="15.757" y2="16.019" gradientUnits="userSpaceOnUse"><stop offset=".018" stop-color="#42FFFA"/><stop offset=".856" stop-color="#07C3F2" stop-opacity="0"/></linearGradient><linearGradient id="paint16_linear" x1="19.648" x2="31.626" y1="-1.853" y2="19.943" gradientUnits="userSpaceOnUse"><stop offset=".018" stop-color="#42FFFA"/><stop offset=".856" stop-color="#07C3F2" stop-opacity="0"/></linearGradient><linearGradient id="paint17_linear" x1="23.807" x2="27.865" y1="3.044" y2="12.6" gradientUnits="userSpaceOnUse"><stop offset=".018" stop-color="#42FFFA" stop-opacity=".5"/><stop offset=".856" stop-color="#07C3F2" stop-opacity="0"/></linearGradient><linearGradient id="paint18_linear" x1="1.434" x2="5.885" y1="21.948" y2="3.948" gradientUnits="userSpaceOnUse"><stop offset=".499" stop-color="#FF318C" stop-opacity="0"/><stop offset=".961" stop-color="#FCBD36"/></linearGradient><linearGradient id="paint19_linear" x1="-3.576" x2="2.691" y1="28.282" y2="15.816" gradientUnits="userSpaceOnUse"><stop offset=".001" stop-color="#5AFFFA" stop-opacity=".5"/><stop offset=".923" stop-color="#07C3F2" stop-opacity="0"/></linearGradient><linearGradient id="paint20_linear" x1="1.945" x2="7.574" y1="17.372" y2="14.23" gradientUnits="userSpaceOnUse"><stop offset=".018" stop-color="#0855FA"/><stop offset=".723" stop-color="#0855FA" stop-opacity="0"/></linearGradient><linearGradient id="paint21_linear" x1="6.03" x2="23.554" y1="6.03" y2="23.554" gradientUnits="userSpaceOnUse"><stop offset=".12" stop-color="#5A044A"/><stop offset=".373" stop-color="#39032F"/><stop offset=".73" stop-color="#10010D"/><stop offset=".914"/></linearGradient></defs></svg>