<svg xmlns="http://www.w3.org/2000/svg" width="64" height="64" fill="none" viewBox="0 0 64 64"><path fill="url(#paint0_linear)" d="M59 5H5V59H59V5Z"/><path fill="url(#paint1_linear)" d="M49.2001 14.8H14.8V49.2001H49.2001V14.8Z"/><path fill="url(#paint2_linear)" d="M54.4001 9.59998H9.6001V54.3H54.3001V9.59998H54.4001Z"/><path fill="url(#paint3_linear)" d="M14.8 14.8H49.2L59 5H5L14.8 14.8Z"/><path fill="url(#paint4_linear)" d="M49.2 49.2H14.8L5 59H59L49.2 49.2Z"/><path fill="url(#paint5_linear)" d="M49.2 14.8V49.2L59 59V5L49.2 14.8Z"/><path fill="url(#paint6_linear)" d="M14.8 49.2V14.8L5 5V59L14.8 49.2Z"/><path fill="url(#paint7_linear)" d="M9.6 9.6H54.4L59 5H5L9.6 9.6Z"/><path fill="url(#paint8_linear)" d="M9.6 9.6H54.4L59 5H5L9.6 9.6Z"/><path fill="url(#paint9_linear)" d="M9.6 9.6H54.4L59 5H5L9.6 9.6Z"/><path fill="url(#paint10_linear)" d="M54.4001 9.59998H9.6001L14.8001 14.8H49.2001L54.4001 9.59998Z"/><path fill="url(#paint11_linear)" d="M54.4 54.4H9.6L5 59H59L54.4 54.4Z"/><path fill="url(#paint12_linear)" d="M54.4 54.4H9.6L5 59H59L54.4 54.4Z"/><path fill="url(#paint13_linear)" d="M54.4 54.4H9.6L5 59H59L54.4 54.4Z"/><path fill="url(#paint14_linear)" d="M54.3999 54.4L58.9999 59V5L54.3999 9.6V54.4Z"/><path fill="url(#paint15_linear)" d="M54.3999 54.4L58.9999 59V5L54.3999 9.6V54.4Z"/><path fill="url(#paint16_linear)" d="M54.3999 54.4L58.9999 59V5L54.3999 9.6V54.4Z"/><path fill="url(#paint17_linear)" d="M54.3999 54.4L58.9999 59V5L54.3999 9.6V54.4Z"/><path fill="url(#paint18_linear)" d="M9.6 54.4V9.6L5 5V59L9.6 54.4Z"/><path fill="url(#paint19_linear)" d="M9.6 54.4V9.6L5 5V59L9.6 54.4Z"/><path fill="url(#paint20_linear)" d="M9.6001 9.59998V54.4L14.8001 49.2V14.8L9.6001 9.59998Z"/><path fill="url(#paint21_linear)" d="M52 12H12V52H52V12Z"/><path fill="#fff" d="M32 44.45H17V46.95H32V44.45Z"/><path fill="#fff" d="M24.45 19.75V17H17V19.75H19.1V29.2H17V31.9H24.45V29.2H22.4V19.75H24.45Z"/><path fill="#fff" d="M31.65 32.15C30.5 32.15 29.5 31.95 28.7 31.5C27.9 31.05 27.25 30.55 26.75 29.9L28.8 27.6C29.25 28.05 29.65 28.45 30.1 28.7C30.55 28.95 31 29.1 31.55 29.1C32.15 29.1 32.65 28.9 33 28.5C33.35 28.1 33.55 27.5 33.55 26.6V17H36.9V26.75C36.9 27.65 36.8 28.4 36.55 29.05C36.3 29.7 35.95 30.25 35.5 30.7C35.05 31.15 34.5 31.5 33.85 31.75C33.15 32 32.45 32.15 31.65 32.15Z"/><defs><linearGradient id="paint0_linear" x1="65.037" x2="-11.242" y1="65.036" y2="-11.241" gradientUnits="userSpaceOnUse"><stop offset=".347" stop-color="#087CFA"/><stop offset=".856" stop-color="#FE2857"/><stop offset="1" stop-color="#FE2857"/></linearGradient><linearGradient id="paint1_linear" x1="53.023" x2="4.483" y1="53.023" y2="4.483" gradientUnits="userSpaceOnUse"><stop offset=".347" stop-color="#087CFA"/><stop offset=".856" stop-color="#FE2857"/><stop offset="1" stop-color="#FE2857"/></linearGradient><linearGradient id="paint2_linear" x1="59.367" x2="-3.82" y1="59.366" y2="-3.82" gradientUnits="userSpaceOnUse"><stop offset="0" stop-color="#087CFA"/><stop offset=".282" stop-color="#0855FA"/><stop offset=".764" stop-color="#E0326B"/><stop offset=".772" stop-color="#FE2857"/><stop offset="1" stop-color="#FE2857"/></linearGradient><linearGradient id="paint3_linear" x1="62.881" x2="6.959" y1="20.315" y2="-2.091" gradientUnits="userSpaceOnUse"><stop offset=".347" stop-color="#087CFA"/><stop offset=".77" stop-color="#F01A72"/><stop offset=".987" stop-color="#FE2857"/></linearGradient><linearGradient id="paint4_linear" x1="65.122" x2="14.818" y1="60.485" y2="52.027" gradientUnits="userSpaceOnUse"><stop offset=".251" stop-color="#087CFA" stop-opacity=".97"/><stop offset=".572" stop-color="#087CFA"/><stop offset=".892" stop-color="#087CFA" stop-opacity=".5"/></linearGradient><linearGradient id="paint5_linear" x1="53.459" x2="55.1" y1="6.059" y2="60.655" gradientUnits="userSpaceOnUse"><stop offset=".018" stop-color="#429EFA"/><stop offset=".518" stop-color="#087CFA"/><stop offset="1" stop-color="#965CF3" stop-opacity=".977"/></linearGradient><linearGradient id="paint6_linear" x1="12.151" x2="6.092" y1="55.008" y2="6.093" gradientUnits="userSpaceOnUse"><stop offset=".323" stop-color="#087CFA"/><stop offset=".72" stop-color="#DF0373"/><stop offset="1" stop-color="#FE2857"/></linearGradient><linearGradient id="paint7_linear" x1="29.817" x2="16.689" y1="7.21" y2="17.688" gradientUnits="userSpaceOnUse"><stop offset=".102" stop-color="#F0B" stop-opacity="0"/><stop offset=".813" stop-color="#FCBD36"/><stop offset="1" stop-color="#fff" stop-opacity=".9"/></linearGradient><linearGradient id="paint8_linear" x1="59.852" x2="42.179" y1="11.512" y2="8.609" gradientUnits="userSpaceOnUse"><stop offset=".018" stop-color="#00FFFA"/><stop offset=".856" stop-color="#07C3F2" stop-opacity="0"/></linearGradient><linearGradient id="paint9_linear" x1="32.799" x2="31.771" y1="-1.196" y2="6.776" gradientUnits="userSpaceOnUse"><stop offset=".203" stop-color="#087CFA"/><stop offset="1" stop-color="#6D6E71" stop-opacity="0"/></linearGradient><linearGradient id="paint10_linear" x1="48.326" x2="19.924" y1="5.415" y2="15.64" gradientUnits="userSpaceOnUse"><stop offset=".174" stop-color="#0861FA"/><stop offset=".723" stop-color="#0855FA" stop-opacity="0"/></linearGradient><linearGradient id="paint11_linear" x1="64.77" x2="14.466" y1="62.582" y2="54.124" gradientUnits="userSpaceOnUse"><stop offset="0" stop-color="#434FCF" stop-opacity="0"/><stop offset="1" stop-color="#1B6EEC"/></linearGradient><linearGradient id="paint12_linear" x1="32" x2="32" y1="51.19" y2="57.776" gradientUnits="userSpaceOnUse"><stop offset=".018" stop-color="#42FFFA"/><stop offset=".856" stop-color="#07C3F2" stop-opacity="0"/></linearGradient><linearGradient id="paint13_linear" x1="56.777" x2="40.998" y1="47.519" y2="53.957" gradientUnits="userSpaceOnUse"><stop offset=".018" stop-color="#FF39FF" stop-opacity=".5"/><stop offset=".856" stop-color="#FF318C" stop-opacity="0"/></linearGradient><linearGradient id="paint14_linear" x1="55.97" x2="57.611" y1="5.984" y2="60.579" gradientUnits="userSpaceOnUse"><stop offset=".018" stop-color="#085EFA"/><stop offset=".856" stop-color="#FF45ED" stop-opacity="0"/></linearGradient><linearGradient id="paint15_linear" x1="48.36" x2="59.847" y1="31.532" y2="32.037" gradientUnits="userSpaceOnUse"><stop offset=".018" stop-color="#42FFFA"/><stop offset=".856" stop-color="#07C3F2" stop-opacity="0"/></linearGradient><linearGradient id="paint16_linear" x1="39.035" x2="62.135" y1="-2.43" y2="39.605" gradientUnits="userSpaceOnUse"><stop offset=".018" stop-color="#42FFFA"/><stop offset=".856" stop-color="#07C3F2" stop-opacity="0"/></linearGradient><linearGradient id="paint17_linear" x1="47.056" x2="54.882" y1="7.013" y2="25.443" gradientUnits="userSpaceOnUse"><stop offset=".018" stop-color="#42FFFA" stop-opacity=".5"/><stop offset=".856" stop-color="#07C3F2" stop-opacity="0"/></linearGradient><linearGradient id="paint18_linear" x1="3.908" x2="12.492" y1="43.471" y2="8.757" gradientUnits="userSpaceOnUse"><stop offset=".499" stop-color="#FF318C" stop-opacity="0"/><stop offset=".961" stop-color="#FCBD36"/></linearGradient><linearGradient id="paint19_linear" x1="-5.754" x2="6.332" y1="55.687" y2="31.644" gradientUnits="userSpaceOnUse"><stop offset=".001" stop-color="#5AFFFA" stop-opacity=".5"/><stop offset=".923" stop-color="#07C3F2" stop-opacity="0"/></linearGradient><linearGradient id="paint20_linear" x1="4.894" x2="15.75" y1="34.646" y2="28.587" gradientUnits="userSpaceOnUse"><stop offset=".018" stop-color="#0855FA"/><stop offset=".723" stop-color="#0855FA" stop-opacity="0"/></linearGradient><linearGradient id="paint21_linear" x1="12.061" x2="47.109" y1="12.061" y2="47.109" gradientUnits="userSpaceOnUse"><stop offset=".12" stop-color="#5A044A"/><stop offset=".373" stop-color="#39032F"/><stop offset=".73" stop-color="#10010D"/><stop offset=".914"/></linearGradient></defs></svg>