<svg xmlns="http://www.w3.org/2000/svg" xmlns:xlink="http://www.w3.org/1999/xlink" width="1917" height="579" contentScriptType="application/ecmascript" contentStyleType="text/css" style="width:1917px;height:579px;background:#fff" preserveAspectRatio="none" version="1.1" viewBox="0 0 1917 579" zoomAndPan="magnify"><style>@import url(https://fonts.googleapis.com/css?family=Roboto|Roboto+Mono&amp;display=swap);.code,.text{font-size:14px}.text{font-family:&apos;Roboto&apos;,sans-serif}.code{font-family:&apos;Roboto Mono&apos;,monospace}.note{stroke:#383838;stroke-width:1;fill:#ebebeb}</style><defs><filter id="f9ebwibwmmiuq" width="300%" height="300%" x="-1" y="-1"><feGaussianBlur result="blurOut" stdDeviation="2"/><feColorMatrix in="blurOut" result="blurOut2" type="matrix" values="0 0 0 0 0 0 0 0 0 0 0 0 0 0 0 0 0 0 .4 0"/><feOffset dx="4" dy="4" in="blurOut2" result="blurOut3"/><feBlend in="SourceGraphic" in2="blurOut3" mode="normal"/></filter></defs><g><polygon fill="#FFF" points="185 139 240 139 247 161.406 1615 161.406 1615 572 185 572 185 139" filter="url(#f9ebwibwmmiuq)" style="stroke:#000;stroke-width:1.5"/><line style="stroke:#000;stroke-width:1.5" x1="185" x2="247" y1="161.406" y2="161.406"/><text x="189" y="153.988" font-family="Roboto" font-size="14" font-weight="bold" textLength="49">content</text><polygon fill="#FFF" points="383 308 479 308 486 330.406 1127 330.406 1127 532 383 532 383 308" filter="url(#f9ebwibwmmiuq)" style="stroke:#000;stroke-width:1.5"/><line style="stroke:#000;stroke-width:1.5" x1="383" x2="486" y1="330.406" y2="330.406"/><text x="387" y="322.988" font-family="Roboto" font-size="14" font-weight="bold" textLength="90">dependencies</text><polygon fill="#FFF" points="1655 137 1751 137 1758 159.406 1900 159.406 1900 414 1655 414 1655 137" filter="url(#f9ebwibwmmiuq)" style="stroke:#000;stroke-width:1.5"/><line style="stroke:#000;stroke-width:1.5" x1="1655" x2="1758" y1="159.406" y2="159.406"/><text x="1659" y="151.988" font-family="Roboto" font-size="14" font-weight="bold" textLength="90">dependencies</text><rect style="stroke:#000;stroke-width:1.5" width="159" height="36.406" x="771.5" y="182" fill="#F8F8F8" filter="url(#f9ebwibwmmiuq)"/><text x="781.5" y="204.988" class="text" textLength="139">module name=&quot;…&quot; 0…N</text><rect style="stroke:#000;stroke-width:1.5" width="142" height="36.406" x="217" y="354.5" fill="#F8F8F8" filter="url(#f9ebwibwmmiuq)"/><text x="227" y="377.488" class="text" textLength="122">module name=&quot;…&quot; N</text><path d="M966,187 L966,196 L930.74,200 L966,204 L966,213.4883 A0,0 0 0 0 966,213.4883 L1332,213.4883 A0,0 0 0 0 1332,213.4883 L1332,197 L1322,187 L966,187 A0,0 0 0 0 966,187" class="note" filter="url(#f9ebwibwmmiuq)"/><path d="M1322,187 L1322,197 L1332,197 L1322,187" class="note"/><text x="972" y="205.535" class="code" textLength="52">content</text><text x="1027" y="205.07" class="text" textLength="290">is not allowed and is not supported for module.</text><path d="M1151.5,469 L1151.5,511.8125 L1590.5,511.8125 L1590.5,479 L1580.5,469 L1151.5,469" class="note" filter="url(#f9ebwibwmmiuq)"/><path d="M1580.5,469 L1580.5,479 L1590.5,479 L1580.5,469" class="note"/><text x="1157.5" y="486.988" class="text" textLength="242">Module dependency is always optional.</text><text x="1157.5" y="503.394" class="text" textLength="418">If the module depends on an unavailable plugin, it will not be loaded.</text><ellipse cx="495.923" cy="372.685" fill="#F8F8F8" filter="url(#f9ebwibwmmiuq)" rx="88.922" ry="20.184" style="stroke:#383838;stroke-width:1.5"/><text x="426.24" y="375.537" class="text" textLength="139">module name=&quot;…&quot; 0…N</text><ellipse cx="496.238" cy="490.548" fill="#F8F8F8" filter="url(#f9ebwibwmmiuq)" rx="75.738" ry="17.548" style="stroke:#383838;stroke-width:1.5"/><text x="439.738" y="494.292" class="text" textLength="107">plugin id=&quot;…&quot; 0…N</text><path d="M620,351 L620,368.5 L585,372.5 L620,376.5 L620,393.8125 A0,0 0 0 0 620,393.8125 L1084,393.8125 A0,0 0 0 0 1084,393.8125 L1084,361 L1074,351 L620,351 A0,0 0 0 0 620,351" class="note" filter="url(#f9ebwibwmmiuq)"/><path d="M1074,351 L1074,361 L1084,361 L1074,351" class="note"/><text x="626" y="368.988" class="text" textLength="443">The dependency is specified in a module descriptor itself in a new model,</text><text x="626" y="385.394" class="text" textLength="220">not where the module is referenced.</text><ellipse cx="1786.922" cy="200.185" fill="#F8F8F8" filter="url(#f9ebwibwmmiuq)" rx="88.922" ry="20.184" style="stroke:#383838;stroke-width:1.5"/><text x="1717.24" y="203.037" class="text" textLength="139">module name=&quot;…&quot; 0…N</text><ellipse cx="1787.238" cy="372.548" fill="#F8F8F8" filter="url(#f9ebwibwmmiuq)" rx="75.738" ry="17.548" style="stroke:#383838;stroke-width:1.5"/><text x="1730.738" y="376.292" class="text" textLength="107">plugin id=&quot;…&quot; 0…N</text><rect style="stroke:#000;stroke-width:1.5" width="58" height="36.406" x="822" y="17.5" fill="#F8F8F8" filter="url(#f9ebwibwmmiuq)"/><a href="https://github.com/JetBrains/intellij-community/blob/master/docs/plugin.md" target="_top" title="https://github.com/JetBrains/intellij-community/blob/master/docs/plugin.md" xlink:actuate="onRequest" xlink:href="https://github.com/JetBrains/intellij-community/blob/master/docs/plugin.md" xlink:show="new" xlink:title="https://github.com/JetBrains/intellij-community/blob/master/docs/plugin.md" xlink:type="simple"><text x="832" y="40.488" fill="#1D1D1D" font-family="Roboto" font-size="14" lengthAdjust="spacing" text-decoration="underline" textLength="38">plugin</text></a><path d="M6,6 L6,65.2188 L380,65.2188 L380,16 L370,6 L6,6" class="note" filter="url(#f9ebwibwmmiuq)"/><path d="M370,6 L370,16 L380,16 L370,6" class="note"/><text x="12" y="23.988" class="text" textLength="353">Every plugin is a module, but not every module is a plugin.</text><text x="12" y="40.395" class="text" textLength="313">A plugin is a group of related modules and for now,</text><text x="12" y="56.801" class="text" textLength="240">it is the only way to distribute modules.</text><path d="M1588,22.5 L1588,48.9883 L1738,48.9883 L1738,32.5 L1728,22.5 L1588,22.5" class="note" filter="url(#f9ebwibwmmiuq)"/><path d="M1728,22.5 L1728,32.5 L1738,32.5 L1728,22.5" class="note"/><text x="1594" y="40.57" class="text" textLength="74">Same as for</text><text x="1671" y="41.035" class="code" textLength="52">module</text><path id="M-M_N" fill="none" d="M777.26,218.03 C774.14,218.7 771.04,219.36 768,220 C601.05,255.04 546.55,221.97 391,292 C357.01,307.3 324.05,335.9 304.91,354.31" style="stroke:#383838;stroke-width:1;stroke-dasharray:7,7"/><text x="517" y="263.988" class="text" textLength="295">a sibling cannot access classes from each other</text><text x="563.5" y="280.394" class="text" textLength="205">unless specified as a dependency</text><path id="ModuleDependencies-GMN17" fill="none" d="M1127.0064,377.1829 C1127.1423,377.2454 1127.2798,377.3087 1127.4188,377.3727 C1127.975,377.6287 1128.5563,377.8963 1129.1621,378.1752 C1130.3736,378.7329 1131.6829,379.3356 1133.0841,379.9806 C1135.8866,381.2706 1139.0568,382.7298 1142.548,384.3369 C1156.5128,390.765 1175.6144,399.5575 1196.8663,409.34 C1239.37,428.905 1290.475,452.43 1326.29,468.92" style="stroke:#383838;stroke-width:1;stroke-dasharray:7,7"/><path id="M-to-P" fill="none" d="M851,181.66 C851,151.93 851,91.29 851,58.58" style="stroke:#383838;stroke-width:1;stroke-dasharray:7,7"/><polygon fill="#383838" points="851 53.58 847 62.58 851 58.58 855 62.58 851 53.58" style="stroke:#383838;stroke-width:1"/><text x="852" y="108.988" class="text" textLength="332">a module can access classes from a containing plugin</text><path id="M-ModuleDependencies" fill="none" d="M918.85,218.03 C983.8,235.65 1075.44,264.42 1100,292 C1102.925,295.285 1105.4202,298.9402 1107.5467,302.8277 C1108.0783,303.7995 1108.5869,304.7859 1109.0734,305.7847 C1109.3167,306.2841 1109.5544,306.7865 1109.7867,307.2918 C1109.8448,307.4182 1109.9026,307.5447 1109.96,307.6713" style="stroke:#383838;stroke-width:1"/><path id="GMN22-PluginContent" fill="none" d="M193,65.18 C193,76.66 193,90.5944 193,105.0798 C193,112.3226 193,119.7031 193,126.9835 C193,130.6236 193,134.2388 193,137.7992 C193,138.0217 193,138.244 193,138.4661" style="stroke:#383838;stroke-width:1;stroke-dasharray:7,7"/><path id="GMN29-PluginDependencies" fill="none" d="M1663,48.71 C1663,67.31 1663,104.0075 1663,136.4825" style="stroke:#383838;stroke-width:1;stroke-dasharray:7,7"/><path id="P-PluginContent" fill="none" d="M821.66,39.3 C697.79,51.23 223.07,98.32 201,121 C198.0563,124.0238 195.7081,127.4589 193.8545,131.1615 C192.9277,133.0128 192.1246,134.931 191.4324,136.898 C191.2594,137.3897 191.0933,137.8846 190.9339,138.3821 C190.894,138.5065 190.8546,138.6311 190.8156,138.7558" style="stroke:#383838;stroke-width:1"/><path id="P-PluginDependencies" fill="none" d="M880.35,36.65 C1003.8,37.76 1480.35,46.84 1607,121 C1624.84,131.445 1638.535,150.0725 1647.915,166.505 C1650.26,170.6131 1652.3353,174.5841 1654.1383,178.2557 C1654.3637,178.7146 1654.5848,179.1689 1654.8016,179.6182 C1654.8558,179.7305 1654.9098,179.8425 1654.9635,179.9542" style="stroke:#383838;stroke-width:1"/></g></svg>